<svg xmlns="http://www.w3.org/2000/svg" xmlns:xlink="http://www.w3.org/1999/xlink" width="500" zoomAndPan="magnify" viewBox="0 0 375 225" height="300" preserveAspectRatio="xMidYMid meet" version="1.0"><defs><filter x="0%" y="0%" width="100%" height="100%" id="e21f0b45f8"><feColorMatrix values="0 0 0 0 1 0 0 0 0 1 0 0 0 0 1 0 0 0 1 0" color-interpolation-filters="sRGB"/></filter><filter x="0%" y="0%" width="100%" height="100%" id="2714a23afc"><feColorMatrix values="0 0 0 0 1 0 0 0 0 1 0 0 0 0 1 0.2126 0.7152 0.0722 0 0" color-interpolation-filters="sRGB"/></filter><g/><clipPath id="c37f006294"><path d="M 21.75 35.019531 L 99 35.019531 L 99 190 L 21.75 190 Z M 21.75 35.019531 " clip-rule="nonzero"/></clipPath><image x="0" y="0" width="1092"  height="2185" preserveAspectRatio="xMidYMid meet"/></g></g></g><g fill="#ffffff" fill-opacity="1"><g transform="translate(106.74611, 129.375005)"><g><path d="M 19.851562 0.6875 C 28.867188 0.6875 35.878906 -4.804688 37.59375 -13.136719 L 29.554688 -13.136719 C 28.132812 -9.214844 24.507812 -6.714844 19.996094 -6.714844 C 14.164062 -6.714844 10.046875 -10.980469 10.046875 -17.15625 C 10.046875 -23.328125 14.214844 -27.59375 20.046875 -27.59375 C 24.410156 -27.59375 27.984375 -25.242188 29.308594 -21.46875 L 37.347656 -21.46875 C 35.386719 -29.703125 28.523438 -34.996094 19.800781 -34.996094 C 9.410156 -34.996094 2.109375 -27.644531 2.109375 -17.15625 C 2.109375 -6.664062 9.410156 0.6875 19.851562 0.6875 Z M 19.851562 0.6875 "/></g></g></g><g fill="#ffffff" fill-opacity="1"><g transform="translate(146.295482, 129.375005)"><g><path d="M 20.390625 0.6875 C 31.121094 0.6875 38.71875 -6.664062 38.71875 -17.15625 C 38.71875 -27.644531 31.121094 -34.996094 20.390625 -34.996094 C 9.65625 -34.996094 2.109375 -27.644531 2.109375 -17.15625 C 2.109375 -6.664062 9.65625 0.6875 20.390625 0.6875 Z M 10.046875 -17.15625 C 10.046875 -23.328125 14.3125 -27.59375 20.390625 -27.59375 C 26.515625 -27.59375 30.730469 -23.328125 30.730469 -17.15625 C 30.730469 -10.980469 26.515625 -6.714844 20.390625 -6.714844 C 14.3125 -6.714844 10.046875 -10.980469 10.046875 -17.15625 Z M 10.046875 -17.15625 "/></g></g></g><g fill="#ffffff" fill-opacity="1"><g transform="translate(187.119051, 129.375005)"><g><path d="M 4.117188 0 L 17.695312 0 C 28.523438 0 35.777344 -6.910156 35.777344 -17.15625 C 35.777344 -27.347656 28.523438 -34.308594 17.695312 -34.308594 L 4.117188 -34.308594 Z M 11.910156 -7.15625 L 11.910156 -27.152344 L 17.449219 -27.152344 C 23.625 -27.152344 27.789062 -23.183594 27.789062 -17.15625 C 27.789062 -11.125 23.625 -7.15625 17.546875 -7.15625 Z M 11.910156 -7.15625 "/></g></g></g><g fill="#ffffff" fill-opacity="1"><g transform="translate(224.953148, 129.375005)"><g><path d="M 4.117188 0 L 27.203125 0 L 27.203125 -6.617188 L 11.859375 -6.617188 L 11.859375 -14.117188 L 25.339844 -14.117188 L 25.339844 -20.632812 L 11.859375 -20.632812 L 11.859375 -27.742188 L 26.664062 -27.742188 L 26.664062 -34.308594 L 4.117188 -34.308594 Z M 4.117188 0 "/></g></g></g><g fill="#ffffff" fill-opacity="1"><g transform="translate(254.651926, 129.375005)"><g><path d="M 4.117188 0 L 11.910156 0 L 11.910156 -9.558594 L 17.546875 -9.558594 C 25.828125 -9.558594 31.171875 -14.410156 31.171875 -21.910156 C 31.171875 -29.457031 25.828125 -34.308594 17.546875 -34.308594 L 4.117188 -34.308594 Z M 11.859375 -16.273438 L 11.859375 -27.496094 L 16.910156 -27.496094 C 20.976562 -27.496094 23.230469 -25.4375 23.230469 -21.859375 C 23.230469 -18.28125 20.976562 -16.273438 16.910156 -16.273438 Z M 11.859375 -16.273438 "/></g></g></g><g fill="#ffffff" fill-opacity="1"><g transform="translate(287.242169, 129.375005)"><g><path d="M 25.339844 0 L 33.132812 0 L 33.132812 -34.308594 L 25.339844 -34.308594 L 25.339844 -21.125 L 11.910156 -21.125 L 11.910156 -34.308594 L 4.117188 -34.308594 L 4.117188 0 L 11.910156 0 L 11.910156 -13.820312 L 25.339844 -13.820312 Z M 25.339844 0 "/></g></g></g><g fill="#ffffff" fill-opacity="1"><g transform="translate(324.488166, 129.375005)"><g><path d="M 1.324219 0 L 10.488281 0 L 15.195312 -7.253906 L 18.085938 -11.617188 L 20.929688 -7.253906 L 25.632812 0 L 34.800781 0 L 23.132812 -17.59375 L 34.210938 -34.308594 L 25.339844 -34.308594 L 18.035156 -23.183594 L 14.898438 -27.9375 L 10.78125 -34.308594 L 1.863281 -34.308594 L 12.988281 -17.546875 Z M 1.324219 0 "/></g></g></g></svg>
